<svg width="1056" height="415" viewBox="0 0 1056 415" fill="none" xmlns="http://www.w3.org/2000/svg">
<rect width="1056" height="415" fill="black"/>
<path d="M279.52 243L267.16 179.16H279.88L287.44 228.48L295.84 188.16H306.16L314.56 228.48L322.12 179.16H334.84L322.6 243H308.92L301 205.68L293.08 243H279.52ZM366.593 244.44C360.593 244.44 355.353 243.08 350.873 240.36C346.473 237.64 343.033 233.76 340.553 228.72C338.153 223.68 336.953 217.8 336.953 211.08C336.953 204.36 338.153 198.52 340.553 193.56C343.033 188.6 346.433 184.72 350.753 181.92C355.153 179.12 360.313 177.72 366.233 177.72C371.913 177.72 376.913 179.08 381.233 181.8C385.553 184.44 388.913 188.28 391.313 193.32C393.793 198.28 395.033 204.28 395.033 211.32V214.68H349.673C350.073 220.76 351.753 225.4 354.713 228.6C357.753 231.72 361.753 233.28 366.713 233.28C370.473 233.28 373.593 232.4 376.073 230.64C378.553 228.8 380.273 226.44 381.233 223.56L393.953 224.4C392.113 230.48 388.793 235.36 383.993 239.04C379.273 242.64 373.473 244.44 366.593 244.44ZM349.673 204.96H381.953C381.473 199.52 379.793 195.48 376.913 192.84C374.113 190.2 370.553 188.88 366.233 188.88C361.753 188.88 358.073 190.24 355.193 192.96C352.313 195.68 350.473 199.68 349.673 204.96ZM435.546 244.44C431.066 244.44 427.146 243.44 423.786 241.44C420.426 239.36 417.826 236.6 415.986 233.16L415.626 243H404.346V157.8H416.466V188.16C418.066 185.36 420.506 182.92 423.786 180.84C427.146 178.76 431.066 177.72 435.546 177.72C440.986 177.72 445.706 179.08 449.706 181.8C453.706 184.44 456.786 188.28 458.946 193.32C461.106 198.28 462.186 204.2 462.186 211.08C462.186 217.96 461.106 223.92 458.946 228.96C456.786 233.92 453.706 237.76 449.706 240.48C445.706 243.12 440.986 244.44 435.546 244.44ZM433.506 233.28C438.546 233.28 442.466 231.32 445.266 227.4C448.066 223.4 449.466 217.96 449.466 211.08C449.466 204.12 448.066 198.68 445.266 194.76C442.466 190.84 438.626 188.88 433.746 188.88C430.146 188.88 427.066 189.76 424.506 191.52C421.946 193.28 419.946 195.8 418.506 199.08C417.146 202.36 416.466 206.36 416.466 211.08C416.466 215.64 417.146 219.6 418.506 222.96C419.946 226.24 421.906 228.8 424.386 230.64C426.946 232.4 429.986 233.28 433.506 233.28ZM486.619 244.44C482.619 244.44 479.019 243.72 475.819 242.28C472.619 240.84 470.059 238.8 468.139 236.16C466.299 233.52 465.379 230.44 465.379 226.92C465.379 221.48 467.019 217.24 470.299 214.2C473.659 211.16 478.699 209 485.419 207.72L506.059 203.4C506.059 198.44 504.979 194.72 502.819 192.24C500.659 189.76 497.419 188.52 493.099 188.52C489.099 188.52 485.979 189.44 483.739 191.28C481.499 193.12 479.979 195.68 479.179 198.96L466.459 198.12C467.659 192.04 470.579 187.12 475.219 183.36C479.859 179.6 485.819 177.72 493.099 177.72C501.259 177.72 507.459 180.04 511.699 184.68C516.019 189.32 518.179 195.72 518.179 203.88V229.08C518.179 230.52 518.499 231.56 519.139 232.2C519.779 232.76 520.699 233.04 521.899 233.04H525.499V243C525.019 243.08 524.219 243.16 523.099 243.24C522.059 243.32 521.019 243.36 519.979 243.36C517.099 243.36 514.659 242.88 512.659 241.92C510.659 240.96 509.139 239.48 508.099 237.48C507.139 235.4 506.579 232.8 506.419 229.68H508.339C507.859 232.48 506.619 235 504.619 237.24C502.619 239.48 500.059 241.24 496.939 242.52C493.819 243.8 490.379 244.44 486.619 244.44ZM488.419 234.48C492.259 234.48 495.499 233.8 498.139 232.44C500.779 231.08 502.739 229.16 504.019 226.68C505.379 224.2 506.059 221.28 506.059 217.92V213L488.299 216.6C484.459 217.32 481.779 218.44 480.259 219.96C478.739 221.48 477.979 223.48 477.979 225.96C477.979 228.6 478.899 230.68 480.739 232.2C482.579 233.72 485.139 234.48 488.419 234.48ZM554.493 244.44C548.333 244.44 543.413 242.36 539.733 238.2C536.053 233.96 534.213 228.04 534.213 220.44V179.16H546.333V217.32C546.333 223.08 547.333 227.28 549.333 229.92C551.333 232.56 554.373 233.88 558.453 233.88C562.853 233.88 566.373 232.4 569.013 229.44C571.733 226.48 573.093 222.28 573.093 216.84V179.16H585.213V243H573.813L573.693 226.32L575.373 227.04C574.253 232.56 571.893 236.84 568.293 239.88C564.693 242.92 560.093 244.44 554.493 244.44ZM633.886 243C627.406 243 622.566 241.52 619.366 238.56C616.246 235.52 614.686 230.88 614.686 224.64V164.16H626.806V224.04C626.806 227 627.486 229.2 628.846 230.64C630.286 232.08 632.406 232.8 635.206 232.8H651.646V243H633.886ZM594.526 189.36V179.16H651.646V189.36H594.526ZM664.679 243V157.8H676.799V193.08L675.599 192.6C676.399 189.16 677.759 186.36 679.679 184.2C681.599 181.96 683.919 180.32 686.639 179.28C689.359 178.24 692.359 177.72 695.639 177.72C700.119 177.72 703.879 178.76 706.919 180.84C710.039 182.84 712.359 185.68 713.879 189.36C715.479 192.96 716.279 197.12 716.279 201.84V243H704.159V204.96C704.159 199.2 703.119 195 701.039 192.36C699.039 189.64 696.039 188.28 692.039 188.28C687.479 188.28 683.799 189.72 680.999 192.6C678.199 195.48 676.799 199.72 676.799 205.32V243H664.679ZM723.912 243L747.192 210.24L725.112 179.16H738.792L754.392 201.96L769.632 179.16H783.552L761.592 210.48L784.632 243H770.832L754.392 218.52L737.832 243H723.912Z" fill="white"/>
</svg>
